HIERARCHY
ROOT Hips
{
	OFFSET -0.001795 -0.223333 0.028219
	CHANNELS 6 Xposition Yposition Zposition Zrotation Yrotation Xrotation 
	JOINT LeftUpLeg
	{
		OFFSET 0.069520 -0.091406 -0.006815
		CHANNELS 3 Zrotation Yrotation Xrotation
		JOINT LeftLeg
		{
			OFFSET 0.034277 -0.375199 -0.004496
			CHANNELS 3 Zrotation Yrotation Xrotation
			JOINT LeftFoot
			{
				OFFSET -0.013596 -0.397961 -0.043693
				CHANNELS 3 Zrotation Yrotation Xrotation
				JOINT LeftToe
				{
					OFFSET 0.026358 -0.055791 0.119288
					CHANNELS 3 Zrotation Yrotation Xrotation
					End Site
					{
						OFFSET 0.000000 0.000000 0.000000
					}
				}
			}
		}
	}
	JOINT RightUpLeg
	{
		OFFSET -0.067670 -0.090522 -0.004320
		CHANNELS 3 Zrotation Yrotation Xrotation
		JOINT RightLeg
		{
			OFFSET -0.038290 -0.382569 -0.008850
			CHANNELS 3 Zrotation Yrotation Xrotation
			JOINT RightFoot
			{
				OFFSET 0.015774 -0.398415 -0.042312
				CHANNELS 3 Zrotation Yrotation Xrotation
				JOINT RightToe
				{
					OFFSET -0.025372 -0.048144 0.123348
					CHANNELS 3 Zrotation Yrotation Xrotation
					End Site
					{
						OFFSET 0.000000 0.000000 0.000000
					}
				}
			}
		}
	}
	JOINT Spine
	{
		OFFSET -0.002533 0.108963 -0.026696
		CHANNELS 3 Zrotation Yrotation Xrotation
		JOINT Spine1
		{
			OFFSET 0.005487 0.135180 0.001092
			CHANNELS 3 Zrotation Yrotation Xrotation
			JOINT Spine2
			{
				OFFSET 0.001457 0.052922 0.025425
				CHANNELS 3 Zrotation Yrotation Xrotation
				JOINT Neck
				{
					OFFSET -0.002778 0.213870 -0.042857
					CHANNELS 3 Zrotation Yrotation Xrotation
					JOINT Head
					{
						OFFSET 0.005152 0.064970 0.051349
						CHANNELS 3 Zrotation Yrotation Xrotation
						End Site
						{
							OFFSET 0.000000 0.000000 0.000000
						}
					}
				}
				JOINT LeftShoulder
				{
					OFFSET 0.078845 0.121749 -0.034090
					CHANNELS 3 Zrotation Yrotation Xrotation
					JOINT LeftArm
					{
						OFFSET 0.090977 0.030469 -0.008868
						CHANNELS 3 Zrotation Yrotation Xrotation
						JOINT LeftForeArm
						{
							OFFSET 0.259612 -0.012772 -0.027456
							CHANNELS 3 Zrotation Yrotation Xrotation
							JOINT LeftHand
							{
								OFFSET 0.249234 0.008986 -0.001171
								CHANNELS 3 Zrotation Yrotation Xrotation
								End Site
								{
									OFFSET 0.000000 0.000000 0.000000
								}
							}
						}
					}
				}
				JOINT RightShoulder
				{
					OFFSET -0.081759 0.118833 -0.038615
					CHANNELS 3 Zrotation Yrotation Xrotation
					JOINT RightArm
					{
						OFFSET -0.096012 0.032551 -0.009143
						CHANNELS 3 Zrotation Yrotation Xrotation
						JOINT RightForeArm
						{
							OFFSET -0.253742 -0.013329 -0.021401
							CHANNELS 3 Zrotation Yrotation Xrotation
							JOINT RightHand
							{
								OFFSET -0.255298 0.007772 -0.005559
								CHANNELS 3 Zrotation Yrotation Xrotation
								End Site
								{
									OFFSET 0.000000 0.000000 0.000000
								}
							}
						}
					}
				}
			}
		}
	}
}
MOTION
Frames: 5
Frame Time: 0.050000
0.000000 0.938214 0.000000 7.885912 3.719663 13.239617 -1.847965 -1.199902 -11.837303 -2.603071 0.091104 9.398789 -1.669589 -1.734024 3.263691 0.000000 0.000000 0.000000 -11.520043 0.261011 -23.256174 -0.421024 0.508753 13.234485 1.798122 5.505181 -1.297222 0.000000 0.000000 0.000000 11.306768 -3.477451 18.926696 3.310965 -1.831790 3.981611 2.944011 8.823793 6.389942 13.341668 -5.348373 -18.879354 0.000000 0.000000 0.000000 -25.376753 -17.233260 4.584245 -47.407711 1.424793 -5.030888 -19.787581 -45.815471 9.008749 0.000000 0.000000 0.000000 18.335553 23.296704 14.272793 14.057534 30.046815 0.191562 -12.531857 10.619709 -0.504171 0.000000 0.000000 0.000000 
-0.000342 0.940118 -0.001123 9.015139 3.562540 14.393230 -2.729707 -1.315083 -12.446330 -2.486174 0.089314 8.432171 -3.333804 -4.437820 4.423109 0.000000 0.000000 0.000000 -12.769622 0.031199 -24.744261 0.066639 0.393862 13.167420 2.154124 6.549008 -1.389446 0.000000 0.000000 0.000000 11.696101 -3.544038 18.529034 3.463615 -1.895791 3.897084 2.979341 8.454131 6.259482 14.760303 -6.740179 -16.893815 0.000000 0.000000 0.000000 -27.654464 -17.300770 4.698872 -45.817404 2.701776 -5.134464 -18.103753 -46.063061 8.448655 0.000000 0.000000 0.000000 17.359831 24.335595 14.635370 14.040699 28.487261 0.036677 -13.340116 12.963905 -0.746342 0.000000 0.000000 0.000000 
-0.000648 0.938982 -0.001987 9.265814 3.920995 14.112992 -2.677890 -1.262566 -11.990307 -2.465728 0.081519 8.384273 -3.865881 -6.695518 2.549359 0.000000 0.000000 0.000000 -13.362802 -0.130376 -24.767882 0.762754 0.246717 14.405164 1.496457 5.935390 -3.331206 0.000000 0.000000 0.000000 11.792513 -3.528044 18.321546 3.048177 -1.729686 4.341959 3.563764 7.054763 5.219172 12.628101 -5.841998 -15.579866 0.000000 0.000000 0.000000 -26.613486 -14.428442 3.462392 -46.843016 2.733363 -5.489356 -20.265154 -44.120926 9.083230 0.000000 0.000000 0.000000 18.246549 24.330144 14.446904 13.923470 27.276302 -0.017275 -11.373871 11.852185 -0.520615 0.000000 0.000000 0.000000 
-0.001277 0.940238 -0.002483 10.190312 5.121379 14.115585 -3.671967 -1.233309 -11.363309 -2.140157 0.014430 8.141140 -4.544332 -8.566164 1.877303 0.000000 0.000000 0.000000 -14.851894 -0.515324 -24.522915 1.577946 0.013986 15.119318 1.948248 7.083432 -3.230327 0.000000 0.000000 0.000000 12.283059 -3.736332 18.544300 3.360024 -2.039959 5.826128 3.289904 7.244659 3.640174 12.203219 -5.419446 -15.749021 0.000000 0.000000 0.000000 -26.472713 -15.320272 3.701502 -46.967876 3.449709 -5.550974 -19.858441 -43.869528 8.724344 0.000000 0.000000 0.000000 18.023244 24.050473 14.382297 14.185806 26.407711 0.007764 -11.147690 12.206998 -0.517527 0.000000 0.000000 0.000000 
-0.002031 0.939775 -0.002647 10.722325 6.199006 13.894379 -3.833280 -1.149606 -10.667921 -2.395838 0.064423 7.212837 -4.714639 -9.017111 1.716358 0.000000 0.000000 0.000000 -15.151786 -0.663918 -24.031546 1.424145 0.017752 15.598170 1.690492 6.697824 -3.901738 0.000000 0.000000 0.000000 12.746747 -3.934063 18.834176 3.379813 -2.008644 5.028243 3.011186 6.476671 3.874784 11.015313 -4.924424 -14.801204 0.000000 0.000000 0.000000 -27.965705 -15.040313 3.573414 -45.147781 4.339457 -5.587319 -21.853578 -42.907946 9.410530 0.000000 0.000000 0.000000 19.218232 23.418181 14.253030 13.879658 25.478104 -0.121604 -10.605333 12.004625 -0.467010 0.000000 0.000000 0.000000 
